# xmcd
#
# Track frame offsets:
#	150
#	13619
#	27754
#	45220
#	61201
#	79695
#	98070
#	115807
#	128994
#	143045
#	158633
#	176793
#
# Disc length: 2521 seconds
#
# Revision: 1
# Processed by: cddbd v1.5.2PL0 Copyright (c) Steve Scherf et al.
# Submitted via: audiograbber 1.83.01
#
DISCID=8c09d70c
DTITLE=Erin Haley - Second First Impression
DYEAR=2008
DGENRE=Canadian Country
TTITLE0=Second First Impression
TTITLE1=Keep On Leavin'
TTITLE2=Can't Let You Go
TTITLE3=Fools Lie
TTITLE4=I Can Love Anyone I Want To
TTITLE5=Closer to God
TTITLE6=One Glory
TTITLE7=Hair and Make-Up
TTITLE8=Over My Shoulder
TTITLE9=Margarita
TTITLE10=One Day Her Heart Is Gonna Have Enough
TTITLE11=Papa Come Quick (Jody and Chico)
EXTD=
EXTT0=
EXTT1=
EXTT2=
EXTT3=
EXTT4=
EXTT5=
EXTT6=
EXTT7=
EXTT8=
EXTT9=
EXTT10=
EXTT11=
PLAYORDER=
